<?xml version="1.0" standalone="no"?>
<!DOCTYPE svg PUBLIC "-//W3C//DTD SVG 20010904//EN"
 "http://www.w3.org/TR/2001/REC-SVG-20010904/DTD/svg10.dtd">
<svg version="1.0" xmlns="http://www.w3.org/2000/svg"
 width="200.000000pt" height="200.000000pt" viewBox="0 0 200.000000 200.000000"
 preserveAspectRatio="xMidYMid meet">
<metadata>
Created by potrace 1.10, written by Peter Selinger 2001-2011
</metadata>
<g transform="translate(0.000000,200.000000) scale(0.100000,-0.100000)"
fill="#000000" stroke="none">
<path d="M1381 1404 c-11 -14 -25 -49 -31 -78 -11 -52 -11 -53 -63 -70 -29
-10 -58 -20 -64 -23 -9 -3 -13 7 -13 34 0 46 -13 68 -33 60 -16 -6 -37 -65
-37 -103 0 -18 -15 -28 -80 -54 -85 -34 -103 -48 -91 -69 7 -10 23 -6 79 18
39 17 73 31 76 31 10 0 -7 -145 -18 -152 -17 -12 -20 -10 -34 21 -23 51 -97
66 -109 22 -3 -11 -16 -22 -29 -25 -13 -4 -36 -25 -51 -49 -35 -53 -40 -57
-84 -57 -43 0 -81 27 -99 70 -11 28 -10 36 9 70 52 93 83 332 45 347 -80 30
-163 -283 -123 -466 21 -101 82 -134 168 -90 25 13 49 25 54 27 4 2 7 -3 7
-11 0 -24 35 -47 71 -47 41 0 95 41 123 91 10 19 29 42 42 52 l24 18 0 -36 c0
-80 37 -121 105 -116 29 2 95 39 95 54 0 4 4 7 9 7 6 0 9 -12 8 -26 -3 -42 15
-38 53 11 37 47 50 55 50 30 0 -8 13 -29 28 -46 23 -26 36 -32 71 -32 44 0 93
27 99 55 2 11 -5 14 -26 10 -35 -5 -84 34 -113 89 -11 22 -23 39 -27 39 -5 0
-28 -27 -53 -60 -24 -32 -47 -59 -51 -60 -5 0 -8 26 -8 59 0 43 8 75 29 122
15 35 36 88 46 117 12 38 24 56 41 62 28 11 32 40 6 47 -15 4 -19 14 -18 50 1
36 -4 49 -23 64 -30 25 -36 24 -60 -7z m49 -29 c0 -9 -6 -12 -15 -9 -8 4 -15
10 -15 15 0 5 7 9 15 9 8 0 15 -7 15 -15z m-13 -68 c-3 -8 -16 -16 -30 -19
-20 -4 -23 -1 -19 16 9 38 23 49 40 32 8 -8 12 -21 9 -29z m-684 -62 c-1 -82
-33 -195 -55 -195 -15 0 -5 228 11 258 7 13 19 22 29 20 14 -3 17 -16 15 -83z
m707 20 c-7 -9 -15 -13 -18 -10 -3 2 1 11 8 20 7 9 15 13 18 10 3 -2 -1 -11
-8 -20z m-257 -76 c-7 -8 -13 -24 -13 -34 0 -18 -1 -18 -16 -3 -15 15 -15 18
0 39 9 13 16 37 17 54 l0 30 13 -35 c10 -29 10 -38 -1 -51z m227 40 c0 -19
-41 -153 -49 -162 -4 -4 -6 30 -3 75 3 46 10 86 16 90 17 11 36 9 36 -3z m-78
-156 c-2 -99 -7 -150 -15 -155 -7 -4 -28 -8 -48 -8 -48 0 -76 32 -90 101 -9
47 -8 62 9 113 20 58 21 60 74 77 29 9 58 17 63 18 6 1 9 -52 7 -146z m-647
-120 c21 -34 51 -60 85 -75 l25 -10 -28 -10 c-67 -24 -105 17 -112 120 -3 49
-2 58 4 35 5 -18 16 -45 26 -60z m365 48 c25 -36 12 -48 -30 -26 -16 8 -30 17
-30 19 0 3 -3 11 -6 20 -12 30 42 19 66 -13z m-58 -45 c12 -9 31 -16 42 -16
18 0 19 -1 1 -20 -10 -11 -26 -20 -36 -20 -23 0 -59 46 -59 75 0 30 13 40 21
17 4 -11 18 -27 31 -36z m201 -45 c12 -13 32 -27 45 -32 32 -12 18 -29 -23
-29 -40 0 -65 29 -65 75 0 16 -4 37 -9 45 -6 8 -7 19 -3 24 3 6 12 -5 20 -24
7 -19 23 -46 35 -59z m292 30 c3 -11 24 -36 45 -55 l40 -36 -34 0 c-28 0 -40
7 -66 40 -26 33 -30 43 -20 55 17 20 27 19 35 -4z m-560 -11 c3 -10 19 -30 34
-43 27 -22 28 -24 10 -35 -31 -20 -67 -14 -84 12 -15 22 -15 27 0 55 18 36 31
39 40 11z"/>
<path d="M475 1061 c-27 -11 -93 -85 -105 -117 -16 -42 -12 -92 10 -114 54
-54 230 7 230 80 0 7 -11 5 -30 -5 -35 -18 -90 -20 -113 -2 -10 6 -20 29 -23
49 -5 31 -2 41 21 64 27 26 28 27 41 9 10 -13 11 -22 4 -29 -14 -14 -12 -26 3
-26 23 0 59 46 55 72 -2 19 -10 23 -38 25 -19 1 -44 -2 -55 -6z m-49 -147 c9
-20 28 -41 41 -47 33 -15 28 -27 -11 -27 -54 0 -66 8 -66 45 0 32 8 65 16 65
2 0 11 -16 20 -36z"/>
<path d="M1585 680 c0 -57 3 -70 15 -70 12 0 15 8 12 34 -3 24 1 35 12 39 21
8 30 -14 22 -48 -5 -20 -3 -25 12 -25 16 0 17 6 12 48 -5 44 -7 47 -34 45 -25
-2 -27 0 -22 22 5 20 2 25 -11 25 -16 0 -18 -10 -18 -70z"/>
<path d="M122 714 c-28 -20 -28 -58 0 -78 28 -20 43 -20 62 0 23 22 20 60 -6
78 -12 9 -25 16 -28 16 -3 0 -16 -7 -28 -16z m52 -30 c8 -21 -1 -34 -24 -34
-22 0 -33 23 -17 39 16 16 34 14 41 -5z"/>
<path d="M402 714 c-27 -18 -29 -55 -4 -77 24 -22 45 -21 65 1 23 26 21 58 -5
76 -12 9 -25 16 -28 16 -3 0 -16 -7 -28 -16z m48 -40 c0 -17 -6 -24 -19 -24
-11 0 -23 5 -26 10 -3 6 -2 10 4 10 6 0 8 6 5 13 -2 7 4 13 16 14 15 1 20 -4
20 -23z"/>
<path d="M675 706 c-16 -16 -23 -31 -19 -43 8 -22 33 -43 51 -43 18 0 53 37
53 55 0 17 -35 55 -50 55 -6 0 -22 -11 -35 -24z m55 -37 c0 -14 -7 -19 -25
-19 -25 0 -33 14 -15 25 6 4 8 10 5 15 -3 4 4 6 15 3 11 -3 20 -14 20 -24z"/>
<path d="M1500 696 c-10 -13 -10 -19 0 -31 7 -8 19 -15 26 -15 8 0 14 -5 14
-11 0 -5 -9 -9 -20 -7 -10 2 -20 -1 -22 -7 -2 -5 11 -11 28 -13 22 -2 33 2 38
14 7 19 -10 44 -30 44 -8 0 -14 5 -14 11 0 5 8 9 18 7 11 -2 20 2 21 7 3 17
-45 17 -59 1z"/>
<path d="M1705 690 c-15 -16 -17 -26 -9 -48 8 -22 15 -27 44 -27 29 0 36 5 44
27 8 22 6 32 -9 48 -10 11 -26 20 -35 20 -9 0 -25 -9 -35 -20z m50 -30 c0 -27
-22 -39 -31 -16 -8 22 3 49 19 43 6 -2 12 -14 12 -27z"/>
<path d="M1810 638 c0 -56 3 -68 16 -68 12 0 15 7 12 24 -4 19 -1 22 14 18 26
-6 48 16 48 48 0 35 -17 49 -58 48 l-32 -1 0 -69z m58 16 c-5 -28 -28 -29 -28
-1 0 13 3 27 7 31 10 10 25 -10 21 -30z"/>
</g>
</svg>
